<?xml version="1.0" encoding="UTF-8" standalone="no"?>
<!-- Created with Inkscape (http://www.inkscape.org/) -->

<svg
   width="171.50075mm"
   height="123.4884mm"
   viewBox="0 0 171.50075 123.48838"
   version="1.1"
   id="svg30903"
   inkscape:version="1.2 (dc2aedaf03, 2022-05-15)"
   sodipodi:docname="projection.svg"
   xmlns:inkscape="http://www.inkscape.org/namespaces/inkscape"
   xmlns:sodipodi="http://sodipodi.sourceforge.net/DTD/sodipodi-0.dtd"
   xmlns="http://www.w3.org/2000/svg"
   xmlns:svg="http://www.w3.org/2000/svg">
  <sodipodi:namedview
     id="namedview30905"
     pagecolor="#ffffff"
     bordercolor="#cccccc"
     borderopacity="1"
     inkscape:showpageshadow="0"
     inkscape:pageopacity="1"
     inkscape:pagecheckerboard="0"
     inkscape:deskcolor="#d1d1d1"
     inkscape:document-units="mm"
     showgrid="false"
     inkscape:zoom="0.989437"
     inkscape:cx="699.89297"
     inkscape:cy="204.66184"
     inkscape:window-width="1920"
     inkscape:window-height="1020"
     inkscape:window-x="0"
     inkscape:window-y="32"
     inkscape:window-maximized="1"
     inkscape:current-layer="layer1"
     showguides="false" />
  <defs
     id="defs30900">
    <g
       id="id-3894ab38-5a63-4569-8c93-0fc55ab4cc61">
      <g
         id="id-83f733d0-ef10-407f-9901-8c5cc7a0cdf6" />
      <g
         id="id-ce00cc89-0607-4604-89b8-522fdc2b748f">
        <path
           d="M 0.453125,1.21875 C 0.375,1.5625 0.34375,1.625 -0.09375,1.625 c -0.109375,0 -0.21875,0 -0.21875,0.1875 0,0.078125 0.046875,0.125 0.125,0.125 0.265625,0 0.5625,-0.03125 0.828125,-0.03125 0.34375,0 0.671875,0.03125 1,0.03125 0.046875,0 0.171875,0 0.171875,-0.203125 C 1.8125,1.625 1.71875,1.625 1.578125,1.625 c -0.5,0 -0.5,-0.0625 -0.5,-0.15625 0,-0.125 0.421875,-1.75 0.484375,-2 0.125,0.296875 0.40625,0.640625 0.921875,0.640625 1.15625,0 2.40625,-1.453125 2.40625,-2.921875 0,-0.9375 -0.578125,-1.59375 -1.328125,-1.59375 -0.5,0 -0.984375,0.359375 -1.3125,0.75 -0.09375,-0.546875 -0.53125,-0.75 -0.890625,-0.75 -0.46875,0 -0.65625,0.390625 -0.734375,0.5625 C 0.4375,-3.5 0.3125,-2.90625 0.3125,-2.875 c 0,0.109375 0.09375,0.109375 0.109375,0.109375 0.109375,0 0.109375,-0.015625 0.171875,-0.234375 0.171875,-0.703125 0.375,-1.1875 0.734375,-1.1875 0.171875,0 0.3125,0.078125 0.3125,0.453125 0,0.234375 -0.03125,0.34375 -0.078125,0.515625 z m 1.75,-4.328125 C 2.265625,-3.375 2.546875,-3.65625 2.71875,-3.8125 c 0.359375,-0.296875 0.640625,-0.375 0.8125,-0.375 0.390625,0 0.640625,0.34375 0.640625,0.9375 0,0.59375 -0.328125,1.734375 -0.515625,2.109375 -0.34375,0.703125 -0.8125,1.03125 -1.1875,1.03125 C 1.8125,-0.109375 1.6875,-0.9375 1.6875,-1 c 0,-0.015625 0,-0.03125 0.03125,-0.15625 z m 0,0"
           id="id-fae941ac-7e53-4931-9f23-500abc3c5874" />
      </g>
    </g>
    <g
       id="id-584330b5-f242-4eac-b527-cffb46477489">
      <g
         id="id-10ece94f-d3c9-49ef-abe5-8e7de9b83c36" />
      <g
         id="id-779619cf-5fb8-4359-9f3a-5e75b4f809b9">
        <path
           d="m 1.71875,-3.75 v -0.65625 l -1.4375,0.109375 v 0.3125 c 0.703125,0 0.78125,0.0625 0.78125,0.5 v 4.65625 C 1.0625,1.625 0.953125,1.625 0.28125,1.625 V 1.9375 C 0.625,1.921875 1.140625,1.90625 1.390625,1.90625 c 0.28125,0 0.78125,0.015625 1.125,0.03125 V 1.625 C 1.859375,1.625 1.75,1.625 1.75,1.171875 V -0.59375 c 0.046875,0.171875 0.46875,0.703125 1.21875,0.703125 1.1875,0 2.21875,-0.984375 2.21875,-2.265625 0,-1.265625 -0.953125,-2.25 -2.078125,-2.25 -0.78125,0 -1.203125,0.4375 -1.390625,0.65625 z M 1.75,-1.140625 v -2.21875 C 2.03125,-3.875 2.515625,-4.15625 3.03125,-4.15625 c 0.734375,0 1.328125,0.875 1.328125,2 0,1.203125 -0.6875,2.046875 -1.421875,2.046875 -0.40625,0 -0.78125,-0.203125 -1.046875,-0.609375 C 1.75,-0.921875 1.75,-0.9375 1.75,-1.140625 Z m 0,0"
           id="id-c0646040-bd76-4d9b-8961-a42157637b27" />
      </g>
      <g
         id="id-e4bb75e8-de2d-4cfe-82cb-daef0ab1c0e9">
        <path
           d="M 4.6875,-2.140625 C 4.6875,-3.40625 3.703125,-4.46875 2.5,-4.46875 c -1.25,0 -2.21875,1.09375 -2.21875,2.328125 0,1.296875 1.03125,2.25 2.203125,2.25 1.203125,0 2.203125,-0.984375 2.203125,-2.25 z m -2.1875,2 c -0.4375,0 -0.875,-0.203125 -1.140625,-0.671875 -0.25,-0.4375 -0.25,-1.046875 -0.25,-1.40625 0,-0.390625 0,-0.921875 0.234375,-1.359375 C 1.609375,-4.03125 2.078125,-4.25 2.484375,-4.25 c 0.4375,0 0.859375,0.21875 1.125,0.65625 0.265625,0.421875 0.265625,1 0.265625,1.375 0,0.359375 0,0.90625 -0.21875,1.34375 C 3.421875,-0.421875 2.984375,-0.140625 2.5,-0.140625 Z m 0,0"
           id="id-9a240e57-ee5f-411c-b93e-24b6b9c8819f" />
      </g>
      <g
         id="id-0eab7b70-38fb-483e-ba50-7ff850e6d863">
        <path
           d="M 1.671875,-3.3125 V -4.40625 L 0.28125,-4.296875 v 0.3125 c 0.703125,0 0.78125,0.0625 0.78125,0.5625 V -0.75 c 0,0.4375 -0.109375,0.4375 -0.78125,0.4375 V 0 c 0.390625,-0.015625 0.859375,-0.03125 1.140625,-0.03125 0.390625,0 0.859375,0 1.265625,0.03125 V -0.3125 H 2.46875 c -0.734375,0 -0.75,-0.109375 -0.75,-0.46875 V -2.3125 c 0,-0.984375 0.421875,-1.875 1.171875,-1.875 0.0625,0 0.09375,0 0.109375,0.015625 -0.03125,0 -0.234375,0.125 -0.234375,0.390625 0,0.265625 0.21875,0.421875 0.4375,0.421875 0.171875,0 0.421875,-0.125 0.421875,-0.4375 0,-0.3125 -0.3125,-0.609375 -0.734375,-0.609375 -0.734375,0 -1.09375,0.671875 -1.21875,1.09375 z m 0,0"
           id="id-391519ec-bd3d-4ad5-9341-085fc50f770c" />
      </g>
      <g
         id="id-861e2c05-0412-41e8-824d-dcc555d861dc">
        <path
           d="m 1.71875,-3.984375 h 1.4375 v -0.3125 H 1.71875 V -6.125 h -0.25 c 0,0.8125 -0.296875,1.875 -1.28125,1.921875 v 0.21875 h 0.84375 v 2.75 c 0,1.21875 0.9375,1.34375 1.296875,1.34375 0.703125,0 0.984375,-0.703125 0.984375,-1.34375 v -0.5625 h -0.25 V -1.25 c 0,0.734375 -0.296875,1.109375 -0.671875,1.109375 -0.671875,0 -0.671875,-0.90625 -0.671875,-1.078125 z m 0,0"
           id="id-123b4fdf-dcfd-4d9d-bb53-e6e71b6fa41d" />
      </g>
      <g
         id="id-0123cbb4-63bd-4724-9700-53e1a12ac6ee">
        <path
           d="m 3.3125,-0.75 c 0.046875,0.390625 0.3125,0.8125 0.78125,0.8125 0.21875,0 0.828125,-0.140625 0.828125,-0.953125 v -0.5625 h -0.25 v 0.5625 c 0,0.578125 -0.25,0.640625 -0.359375,0.640625 -0.328125,0 -0.375,-0.453125 -0.375,-0.5 v -1.984375 c 0,-0.421875 0,-0.8125 -0.359375,-1.1875 C 3.1875,-4.3125 2.6875,-4.46875 2.21875,-4.46875 c -0.828125,0 -1.515625,0.46875 -1.515625,1.125 0,0.296875 0.203125,0.46875 0.46875,0.46875 0.28125,0 0.453125,-0.203125 0.453125,-0.453125 0,-0.125 -0.046875,-0.453125 -0.515625,-0.453125 C 1.390625,-4.140625 1.875,-4.25 2.1875,-4.25 c 0.5,0 1.0625,0.390625 1.0625,1.28125 v 0.359375 c -0.515625,0.03125 -1.203125,0.0625 -1.828125,0.359375 -0.75,0.34375 -1,0.859375 -1,1.296875 0,0.8125 0.96875,1.0625 1.59375,1.0625 0.65625,0 1.109375,-0.40625 1.296875,-0.859375 z M 3.25,-2.390625 v 1 c 0,0.9375 -0.71875,1.28125 -1.171875,1.28125 -0.484375,0 -0.890625,-0.34375 -0.890625,-0.84375 0,-0.546875 0.421875,-1.375 2.0625,-1.4375 z m 0,0"
           id="id-cfdc0788-dbed-42a1-9ecd-c54565e0eeb9" />
      </g>
      <g
         id="id-348a4b0b-5a91-4e0b-bfde-1126d753a46b">
        <path
           d="M 1.765625,-6.921875 0.328125,-6.8125 V -6.5 c 0.703125,0 0.78125,0.0625 0.78125,0.5625 V -0.75 c 0,0.4375 -0.109375,0.4375 -0.78125,0.4375 V 0 C 0.65625,-0.015625 1.1875,-0.03125 1.4375,-0.03125 c 0.25,0 0.734375,0.015625 1.109375,0.03125 v -0.3125 c -0.671875,0 -0.78125,0 -0.78125,-0.4375 z m 0,0"
           id="id-900d9001-bd6c-4d20-b741-1c68ddb80a39" />
      </g>
    </g>
    <g
       id="id-6b79452b-24c3-4baa-99f3-d09b2a25ae26"
       style="fill:#1c71d8;stroke-width:0">
      <g
         id="id-cc750ef7-fe6f-4687-a1b8-ec1279524cac"
         style="fill:#1c71d8;stroke-width:0" />
      <g
         id="id-f9b19ffd-83a3-4aa7-b8ca-88a9bbb51b6e"
         style="fill:#1c71d8;stroke-width:0">
        <path
           d="M 1.765625,-6.921875 0.328125,-6.8125 V -6.5 c 0.703125,0 0.78125,0.0625 0.78125,0.5625 V -0.75 c 0,0.4375 -0.109375,0.4375 -0.78125,0.4375 V 0 C 0.65625,-0.015625 1.1875,-0.03125 1.4375,-0.03125 c 0.25,0 0.734375,0.015625 1.109375,0.03125 v -0.3125 c -0.671875,0 -0.78125,0 -0.78125,-0.4375 z m 0,0"
           id="id-4b71e094-c055-401f-8fa2-c841a0353ee8"
           style="fill:#1c71d8;stroke-width:0" />
      </g>
      <g
         id="id-091a733a-53bf-49d5-bb98-90ce2ba17bc0"
         style="fill:#1c71d8;stroke-width:0">
        <path
           d="M 1.765625,-4.40625 0.375,-4.296875 v 0.3125 c 0.640625,0 0.734375,0.0625 0.734375,0.546875 V -0.75 c 0,0.4375 -0.109375,0.4375 -0.78125,0.4375 V 0 C 0.640625,-0.015625 1.1875,-0.03125 1.421875,-0.03125 1.78125,-0.03125 2.125,-0.015625 2.46875,0 v -0.3125 c -0.671875,0 -0.703125,-0.046875 -0.703125,-0.4375 z m 0.03125,-1.734375 c 0,-0.3125 -0.234375,-0.53125 -0.515625,-0.53125 -0.3125,0 -0.53125,0.265625 -0.53125,0.53125 0,0.265625 0.21875,0.53125 0.53125,0.53125 0.28125,0 0.515625,-0.21875 0.515625,-0.53125 z m 0,0"
           id="id-da41abb8-e2a0-463f-acff-4c2e73188c38"
           style="fill:#1c71d8;stroke-width:0" />
      </g>
      <g
         id="id-c474aeb0-6c12-4304-bdde-7e5178cdb5fe"
         style="fill:#1c71d8;stroke-width:0">
        <path
           d="m 2.21875,-1.71875 c -0.875,0 -0.875,-1 -0.875,-1.21875 0,-0.265625 0.015625,-0.59375 0.15625,-0.84375 0.078125,-0.109375 0.3125,-0.390625 0.71875,-0.390625 0.859375,0 0.859375,0.984375 0.859375,1.21875 0,0.265625 0,0.59375 -0.15625,0.84375 C 2.84375,-2 2.609375,-1.71875 2.21875,-1.71875 Z M 1.0625,-1.328125 c 0,-0.03125 0,-0.265625 0.15625,-0.46875 0.390625,0.28125 0.8125,0.3125 1,0.3125 0.921875,0 1.609375,-0.6875 1.609375,-1.453125 0,-0.375 -0.15625,-0.734375 -0.40625,-0.96875 C 3.78125,-4.25 4.140625,-4.296875 4.3125,-4.296875 c 0.03125,0 0.078125,0 0.109375,0.015625 C 4.3125,-4.25 4.25,-4.140625 4.25,-4.015625 c 0,0.171875 0.140625,0.28125 0.296875,0.28125 0.09375,0 0.28125,-0.0625 0.28125,-0.296875 0,-0.171875 -0.109375,-0.484375 -0.5,-0.484375 -0.203125,0 -0.640625,0.0625 -1.0625,0.46875 C 2.84375,-4.375 2.4375,-4.40625 2.21875,-4.40625 c -0.9375,0 -1.625,0.6875 -1.625,1.453125 0,0.4375 0.21875,0.8125 0.46875,1.03125 -0.125,0.140625 -0.3125,0.46875 -0.3125,0.828125 0,0.3125 0.140625,0.6875 0.453125,0.890625 -0.609375,0.15625 -0.921875,0.59375 -0.921875,0.984375 0,0.71875 0.984375,1.265625 2.203125,1.265625 1.171875,0 2.203125,-0.5 2.203125,-1.28125 0,-0.34375 -0.125,-0.859375 -0.640625,-1.140625 -0.53125,-0.265625 -1.109375,-0.265625 -1.71875,-0.265625 -0.25,0 -0.671875,0 -0.75,-0.015625 C 1.265625,-0.703125 1.0625,-1 1.0625,-1.328125 Z M 2.5,1.828125 c -1.015625,0 -1.703125,-0.515625 -1.703125,-1.046875 0,-0.453125 0.375,-0.828125 0.8125,-0.84375 h 0.59375 c 0.859375,0 1.96875,0 1.96875,0.84375 0,0.546875 -0.703125,1.046875 -1.671875,1.046875 z m 0,0"
           id="id-5aa3ab4c-9d1e-4114-9293-2ea7c42fbcde"
           style="fill:#1c71d8;stroke-width:0" />
      </g>
      <g
         id="id-b3c4dcfa-99fb-4a57-8271-aeac6b37c13d"
         style="fill:#1c71d8;stroke-width:0">
        <path
           d="m 1.09375,-0.75 c 0,0.4375 -0.109375,0.4375 -0.78125,0.4375 V 0 c 0.359375,-0.015625 0.859375,-0.03125 1.140625,-0.03125 0.25,0 0.765625,0.015625 1.109375,0.03125 v -0.3125 c -0.671875,0 -0.78125,0 -0.78125,-0.4375 V -2.59375 C 1.78125,-3.625 2.5,-4.1875 3.125,-4.1875 c 0.640625,0 0.75,0.53125 0.75,1.109375 V -0.75 c 0,0.4375 -0.109375,0.4375 -0.78125,0.4375 V 0 c 0.34375,-0.015625 0.859375,-0.03125 1.125,-0.03125 0.25,0 0.78125,0.015625 1.109375,0.03125 v -0.3125 c -0.515625,0 -0.765625,0 -0.765625,-0.296875 v -1.90625 c 0,-0.859375 0,-1.15625 -0.3125,-1.515625 -0.140625,-0.171875 -0.46875,-0.375 -1.046875,-0.375 -0.84375,0 -1.28125,0.59375 -1.453125,0.984375 v -3.5 L 0.3125,-6.8125 V -6.5 c 0.703125,0 0.78125,0.0625 0.78125,0.5625 z m 0,0"
           id="id-36af9cc5-0a28-49fd-91b1-8dc5bf8a2fbc"
           style="fill:#1c71d8;stroke-width:0" />
      </g>
      <g
         id="id-20cea0f2-e0da-404b-acab-874fb8206991"
         style="fill:#1c71d8;stroke-width:0">
        <path
           d="m 1.71875,-3.984375 h 1.4375 v -0.3125 H 1.71875 V -6.125 h -0.25 c 0,0.8125 -0.296875,1.875 -1.28125,1.921875 v 0.21875 h 0.84375 v 2.75 c 0,1.21875 0.9375,1.34375 1.296875,1.34375 0.703125,0 0.984375,-0.703125 0.984375,-1.34375 v -0.5625 h -0.25 V -1.25 c 0,0.734375 -0.296875,1.109375 -0.671875,1.109375 -0.671875,0 -0.671875,-0.90625 -0.671875,-1.078125 z m 0,0"
           id="id-9663037d-bf85-488c-bc50-1ac3529c59f1"
           style="fill:#1c71d8;stroke-width:0" />
      </g>
    </g>
    <g
       id="id-036fa2f6-5007-4899-aef7-3b2cf3e77973"
       style="fill:#e5a50a;stroke-width:0">
      <g
         id="id-56d3895b-6633-4db5-9dd3-4ac0ea05b74e"
         style="fill:#e5a50a;stroke-width:0" />
      <g
         id="id-6941bec3-5cf9-4641-b8f2-1af676ecca45"
         style="fill:#e5a50a;stroke-width:0">
        <path
           d="m 2.078125,-1.9375 c 0.21875,0.046875 1.03125,0.203125 1.03125,0.921875 0,0.5 -0.34375,0.90625 -1.125,0.90625 -0.84375,0 -1.203125,-0.5625 -1.390625,-1.421875 C 0.5625,-1.65625 0.5625,-1.6875 0.453125,-1.6875 c -0.125,0 -0.125,0.0625 -0.125,0.234375 V -0.125 c 0,0.171875 0,0.234375 0.109375,0.234375 0.046875,0 0.0625,-0.015625 0.25,-0.203125 0.015625,-0.015625 0.015625,-0.03125 0.203125,-0.21875 0.4375,0.40625 0.890625,0.421875 1.09375,0.421875 1.140625,0 1.609375,-0.671875 1.609375,-1.390625 0,-0.515625 -0.296875,-0.828125 -0.421875,-0.9375 C 2.84375,-2.546875 2.453125,-2.625 2.03125,-2.703125 1.46875,-2.8125 0.8125,-2.9375 0.8125,-3.515625 c 0,-0.359375 0.25,-0.765625 1.109375,-0.765625 1.09375,0 1.15625,0.90625 1.171875,1.203125 0,0.09375 0.09375,0.09375 0.109375,0.09375 0.140625,0 0.140625,-0.046875 0.140625,-0.234375 v -1.015625 c 0,-0.15625 0,-0.234375 -0.109375,-0.234375 -0.046875,0 -0.078125,0 -0.203125,0.125 -0.03125,0.03125 -0.125,0.125 -0.171875,0.15625 -0.375,-0.28125 -0.78125,-0.28125 -0.9375,-0.28125 -1.21875,0 -1.59375,0.671875 -1.59375,1.234375 0,0.34375 0.15625,0.625 0.421875,0.84375 0.328125,0.25 0.609375,0.3125 1.328125,0.453125 z m 0,0"
           id="id-8c93e714-462b-46a3-850e-734aa5ef5ff8"
           style="fill:#e5a50a;stroke-width:0" />
      </g>
      <g
         id="id-4286310e-a681-4a42-9e08-fe4c31f2e63e"
         style="fill:#e5a50a;stroke-width:0">
        <path
           d="m 3.3125,-0.75 c 0.046875,0.390625 0.3125,0.8125 0.78125,0.8125 0.21875,0 0.828125,-0.140625 0.828125,-0.953125 v -0.5625 h -0.25 v 0.5625 c 0,0.578125 -0.25,0.640625 -0.359375,0.640625 -0.328125,0 -0.375,-0.453125 -0.375,-0.5 v -1.984375 c 0,-0.421875 0,-0.8125 -0.359375,-1.1875 C 3.1875,-4.3125 2.6875,-4.46875 2.21875,-4.46875 c -0.828125,0 -1.515625,0.46875 -1.515625,1.125 0,0.296875 0.203125,0.46875 0.46875,0.46875 0.28125,0 0.453125,-0.203125 0.453125,-0.453125 0,-0.125 -0.046875,-0.453125 -0.515625,-0.453125 C 1.390625,-4.140625 1.875,-4.25 2.1875,-4.25 c 0.5,0 1.0625,0.390625 1.0625,1.28125 v 0.359375 c -0.515625,0.03125 -1.203125,0.0625 -1.828125,0.359375 -0.75,0.34375 -1,0.859375 -1,1.296875 0,0.8125 0.96875,1.0625 1.59375,1.0625 0.65625,0 1.109375,-0.40625 1.296875,-0.859375 z M 3.25,-2.390625 v 1 c 0,0.9375 -0.71875,1.28125 -1.171875,1.28125 -0.484375,0 -0.890625,-0.34375 -0.890625,-0.84375 0,-0.546875 0.421875,-1.375 2.0625,-1.4375 z m 0,0"
           id="id-ec34b9a1-ca6e-49bc-bc4e-9b3e96f22961"
           style="fill:#e5a50a;stroke-width:0" />
      </g>
      <g
         id="id-f9194bc6-7512-48ab-b8eb-3bbcb1fbc235"
         style="fill:#e5a50a;stroke-width:0">
        <path
           d="M 1.09375,-3.421875 V -0.75 c 0,0.4375 -0.109375,0.4375 -0.78125,0.4375 V 0 c 0.359375,-0.015625 0.859375,-0.03125 1.140625,-0.03125 0.25,0 0.765625,0.015625 1.109375,0.03125 v -0.3125 c -0.671875,0 -0.78125,0 -0.78125,-0.4375 V -2.59375 C 1.78125,-3.625 2.5,-4.1875 3.125,-4.1875 c 0.640625,0 0.75,0.53125 0.75,1.109375 V -0.75 c 0,0.4375 -0.109375,0.4375 -0.78125,0.4375 V 0 c 0.34375,-0.015625 0.859375,-0.03125 1.125,-0.03125 0.25,0 0.78125,0.015625 1.109375,0.03125 v -0.3125 c -0.65625,0 -0.765625,0 -0.765625,-0.4375 v -1.84375 c 0,-1.03125 0.703125,-1.59375 1.34375,-1.59375 0.625,0 0.734375,0.53125 0.734375,1.109375 V -0.75 c 0,0.4375 -0.109375,0.4375 -0.78125,0.4375 V 0 c 0.34375,-0.015625 0.859375,-0.03125 1.125,-0.03125 0.265625,0 0.78125,0.015625 1.125,0.03125 v -0.3125 c -0.515625,0 -0.765625,0 -0.78125,-0.296875 v -1.90625 c 0,-0.859375 0,-1.15625 -0.3125,-1.515625 -0.140625,-0.171875 -0.46875,-0.375 -1.046875,-0.375 -0.828125,0 -1.28125,0.59375 -1.4375,0.984375 C 4.390625,-4.296875 3.65625,-4.40625 3.203125,-4.40625 2.46875,-4.40625 2,-3.984375 1.71875,-3.359375 V -4.40625 L 0.3125,-4.296875 v 0.3125 c 0.703125,0 0.78125,0.0625 0.78125,0.5625 z m 0,0"
           id="id-7c8bf477-e27e-4a4b-b0c8-de3d04b8c7b2"
           style="fill:#e5a50a;stroke-width:0" />
      </g>
      <g
         id="id-171f626c-8b5f-435e-9e98-795ef23e2bdc"
         style="fill:#e5a50a;stroke-width:0">
        <path
           d="m 1.71875,-3.75 v -0.65625 l -1.4375,0.109375 v 0.3125 c 0.703125,0 0.78125,0.0625 0.78125,0.5 v 4.65625 C 1.0625,1.625 0.953125,1.625 0.28125,1.625 V 1.9375 C 0.625,1.921875 1.140625,1.90625 1.390625,1.90625 c 0.28125,0 0.78125,0.015625 1.125,0.03125 V 1.625 C 1.859375,1.625 1.75,1.625 1.75,1.171875 V -0.59375 c 0.046875,0.171875 0.46875,0.703125 1.21875,0.703125 1.1875,0 2.21875,-0.984375 2.21875,-2.265625 0,-1.265625 -0.953125,-2.25 -2.078125,-2.25 -0.78125,0 -1.203125,0.4375 -1.390625,0.65625 z M 1.75,-1.140625 v -2.21875 C 2.03125,-3.875 2.515625,-4.15625 3.03125,-4.15625 c 0.734375,0 1.328125,0.875 1.328125,2 0,1.203125 -0.6875,2.046875 -1.421875,2.046875 -0.40625,0 -0.78125,-0.203125 -1.046875,-0.609375 C 1.75,-0.921875 1.75,-0.9375 1.75,-1.140625 Z m 0,0"
           id="id-ca069f49-c15b-4d1b-b6e4-1352ae884e2c"
           style="fill:#e5a50a;stroke-width:0" />
      </g>
      <g
         id="id-55049044-e230-4c62-bf85-77ba7c7ff402"
         style="fill:#e5a50a;stroke-width:0">
        <path
           d="M 1.765625,-6.921875 0.328125,-6.8125 V -6.5 c 0.703125,0 0.78125,0.0625 0.78125,0.5625 V -0.75 c 0,0.4375 -0.109375,0.4375 -0.78125,0.4375 V 0 C 0.65625,-0.015625 1.1875,-0.03125 1.4375,-0.03125 c 0.25,0 0.734375,0.015625 1.109375,0.03125 v -0.3125 c -0.671875,0 -0.78125,0 -0.78125,-0.4375 z m 0,0"
           id="id-32eeaff7-3eca-4027-a7dc-ca8ddc486c41"
           style="fill:#e5a50a;stroke-width:0" />
      </g>
      <g
         id="id-31391293-4278-4739-bfd5-a4f1a2416f6e"
         style="fill:#e5a50a;stroke-width:0">
        <path
           d="M 1.109375,-2.515625 C 1.171875,-4 2.015625,-4.25 2.359375,-4.25 c 1.015625,0 1.125,1.34375 1.125,1.734375 z m 0,0.21875 h 2.78125 c 0.21875,0 0.25,0 0.25,-0.21875 0,-0.984375 -0.546875,-1.953125 -1.78125,-1.953125 -1.15625,0 -2.078125,1.03125 -2.078125,2.28125 0,1.328125 1.046875,2.296875 2.1875,2.296875 C 3.6875,0.109375 4.140625,-1 4.140625,-1.1875 4.140625,-1.28125 4.0625,-1.3125 4,-1.3125 c -0.078125,0 -0.109375,0.0625 -0.125,0.140625 -0.34375,1.03125 -1.25,1.03125 -1.34375,1.03125 -0.5,0 -0.890625,-0.296875 -1.125,-0.671875 -0.296875,-0.46875 -0.296875,-1.125 -0.296875,-1.484375 z m 0,0"
           id="id-61cee131-3a49-4970-8840-b22377803378"
           style="fill:#e5a50a;stroke-width:0" />
      </g>
      <g
         id="id-c14610df-2a8c-411d-a75f-a32d4f1e65d3"
         style="fill:#e5a50a;stroke-width:0">
        <path
           d="M 1.765625,-4.40625 0.375,-4.296875 v 0.3125 c 0.640625,0 0.734375,0.0625 0.734375,0.546875 V -0.75 c 0,0.4375 -0.109375,0.4375 -0.78125,0.4375 V 0 C 0.640625,-0.015625 1.1875,-0.03125 1.421875,-0.03125 1.78125,-0.03125 2.125,-0.015625 2.46875,0 v -0.3125 c -0.671875,0 -0.703125,-0.046875 -0.703125,-0.4375 z m 0.03125,-1.734375 c 0,-0.3125 -0.234375,-0.53125 -0.515625,-0.53125 -0.3125,0 -0.53125,0.265625 -0.53125,0.53125 0,0.265625 0.21875,0.53125 0.53125,0.53125 0.28125,0 0.515625,-0.21875 0.515625,-0.53125 z m 0,0"
           id="id-0281d4a8-712f-4b8e-b242-58965127dd19"
           style="fill:#e5a50a;stroke-width:0" />
      </g>
      <g
         id="id-b30427a7-2fad-4540-8e0f-a24d8bb2b83c"
         style="fill:#e5a50a;stroke-width:0">
        <path
           d="M 1.09375,-3.421875 V -0.75 c 0,0.4375 -0.109375,0.4375 -0.78125,0.4375 V 0 c 0.359375,-0.015625 0.859375,-0.03125 1.140625,-0.03125 0.25,0 0.765625,0.015625 1.109375,0.03125 v -0.3125 c -0.671875,0 -0.78125,0 -0.78125,-0.4375 V -2.59375 C 1.78125,-3.625 2.5,-4.1875 3.125,-4.1875 c 0.640625,0 0.75,0.53125 0.75,1.109375 V -0.75 c 0,0.4375 -0.109375,0.4375 -0.78125,0.4375 V 0 c 0.34375,-0.015625 0.859375,-0.03125 1.125,-0.03125 0.25,0 0.78125,0.015625 1.109375,0.03125 v -0.3125 c -0.515625,0 -0.765625,0 -0.765625,-0.296875 v -1.90625 c 0,-0.859375 0,-1.15625 -0.3125,-1.515625 -0.140625,-0.171875 -0.46875,-0.375 -1.046875,-0.375 C 2.46875,-4.40625 2,-3.984375 1.71875,-3.359375 V -4.40625 L 0.3125,-4.296875 v 0.3125 c 0.703125,0 0.78125,0.0625 0.78125,0.5625 z m 0,0"
           id="id-095d8414-3430-4842-abf7-f7addcfa99d6"
           style="fill:#e5a50a;stroke-width:0" />
      </g>
      <g
         id="id-1d1f279e-2b49-4925-857b-4ae513dc4efb"
         style="fill:#e5a50a;stroke-width:0">
        <path
           d="m 1.71875,-3.984375 h 1.4375 v -0.3125 H 1.71875 V -6.125 h -0.25 c 0,0.8125 -0.296875,1.875 -1.28125,1.921875 v 0.21875 h 0.84375 v 2.75 c 0,1.21875 0.9375,1.34375 1.296875,1.34375 0.703125,0 0.984375,-0.703125 0.984375,-1.34375 v -0.5625 h -0.25 V -1.25 c 0,0.734375 -0.296875,1.109375 -0.671875,1.109375 -0.671875,0 -0.671875,-0.90625 -0.671875,-1.078125 z m 0,0"
           id="id-683b50c6-6783-4a8a-9caf-782beec5401a"
           style="fill:#e5a50a;stroke-width:0" />
      </g>
      <g
         id="id-07d0eb47-3680-4562-a9dc-2af7a28a723b"
         style="fill:#e5a50a;stroke-width:0">
        <path
           d="M 1.671875,-3.3125 V -4.40625 L 0.28125,-4.296875 v 0.3125 c 0.703125,0 0.78125,0.0625 0.78125,0.5625 V -0.75 c 0,0.4375 -0.109375,0.4375 -0.78125,0.4375 V 0 c 0.390625,-0.015625 0.859375,-0.03125 1.140625,-0.03125 0.390625,0 0.859375,0 1.265625,0.03125 V -0.3125 H 2.46875 c -0.734375,0 -0.75,-0.109375 -0.75,-0.46875 V -2.3125 c 0,-0.984375 0.421875,-1.875 1.171875,-1.875 0.0625,0 0.09375,0 0.109375,0.015625 -0.03125,0 -0.234375,0.125 -0.234375,0.390625 0,0.265625 0.21875,0.421875 0.4375,0.421875 0.171875,0 0.421875,-0.125 0.421875,-0.4375 0,-0.3125 -0.3125,-0.609375 -0.734375,-0.609375 -0.734375,0 -1.09375,0.671875 -1.21875,1.09375 z m 0,0"
           id="id-2e0829a0-3779-4982-8d08-00a98c2e00d1"
           style="fill:#e5a50a;stroke-width:0" />
      </g>
      <g
         id="id-089ca52d-99f6-4518-99ee-417b314c973e"
         style="fill:#e5a50a;stroke-width:0">
        <path
           d="m 1.171875,-2.171875 c 0,-1.625 0.8125,-2.046875 1.34375,-2.046875 0.09375,0 0.71875,0.015625 1.0625,0.375 -0.40625,0.03125 -0.46875,0.328125 -0.46875,0.453125 0,0.265625 0.1875,0.453125 0.453125,0.453125 0.265625,0 0.46875,-0.15625 0.46875,-0.46875 0,-0.671875 -0.765625,-1.0625 -1.53125,-1.0625 -1.25,0 -2.15625,1.078125 -2.15625,2.3125 0,1.28125 0.984375,2.265625 2.140625,2.265625 1.328125,0 1.65625,-1.203125 1.65625,-1.296875 0,-0.09375 -0.109375,-0.09375 -0.140625,-0.09375 -0.078125,0 -0.109375,0.03125 -0.125,0.09375 -0.28125,0.921875 -0.9375,1.046875 -1.296875,1.046875 -0.53125,0 -1.40625,-0.421875 -1.40625,-2.03125 z m 0,0"
           id="id-3a84f0a4-ae98-4b31-9827-e532e60f17c3"
           style="fill:#e5a50a;stroke-width:0" />
      </g>
      <g
         id="id-fc624e51-4cfd-4fef-91a9-abe0ab1a7f1c"
         style="fill:#e5a50a;stroke-width:0">
        <path
           d="M 4.6875,-2.140625 C 4.6875,-3.40625 3.703125,-4.46875 2.5,-4.46875 c -1.25,0 -2.21875,1.09375 -2.21875,2.328125 0,1.296875 1.03125,2.25 2.203125,2.25 1.203125,0 2.203125,-0.984375 2.203125,-2.25 z m -2.1875,2 c -0.4375,0 -0.875,-0.203125 -1.140625,-0.671875 -0.25,-0.4375 -0.25,-1.046875 -0.25,-1.40625 0,-0.390625 0,-0.921875 0.234375,-1.359375 C 1.609375,-4.03125 2.078125,-4.25 2.484375,-4.25 c 0.4375,0 0.859375,0.21875 1.125,0.65625 0.265625,0.421875 0.265625,1 0.265625,1.375 0,0.359375 0,0.90625 -0.21875,1.34375 C 3.421875,-0.421875 2.984375,-0.140625 2.5,-0.140625 Z m 0,0"
           id="id-6a05fb70-d282-4f1c-8608-c87f6cbf22ab"
           style="fill:#e5a50a;stroke-width:0" />
      </g>
      <g
         id="id-62695149-d3d1-4662-8f8e-db6438cb91ad"
         style="fill:#e5a50a;stroke-width:0">
        <path
           d="m 1.75,-4.296875 v -1.15625 c 0,-0.875 0.46875,-1.359375 0.90625,-1.359375 0.03125,0 0.1875,0 0.328125,0.078125 C 2.875,-6.703125 2.6875,-6.5625 2.6875,-6.3125 c 0,0.21875 0.15625,0.421875 0.4375,0.421875 0.28125,0 0.4375,-0.203125 0.4375,-0.4375 0,-0.375 -0.375,-0.703125 -0.90625,-0.703125 -0.6875,0 -1.546875,0.53125 -1.546875,1.59375 v 1.140625 h -0.78125 v 0.3125 h 0.78125 V -0.75 C 1.109375,-0.3125 1,-0.3125 0.34375,-0.3125 V 0 c 0.390625,-0.015625 0.859375,-0.03125 1.125,-0.03125 0.40625,0 0.875,0 1.265625,0.03125 V -0.3125 H 2.53125 c -0.734375,0 -0.75,-0.109375 -0.75,-0.46875 v -3.203125 h 1.125 v -0.3125 z m 0,0"
           id="id-2cc27911-ce15-462d-99a3-5de823612778"
           style="fill:#e5a50a;stroke-width:0" />
      </g>
      <g
         id="id-6aa59407-c4e0-452d-9138-189087351294"
         style="fill:#e5a50a;stroke-width:0">
        <path
           d="m 3.78125,-0.546875 v 0.65625 L 5.25,0 v -0.3125 c -0.6875,0 -0.78125,-0.0625 -0.78125,-0.5625 V -6.921875 L 3.046875,-6.8125 V -6.5 c 0.6875,0 0.765625,0.0625 0.765625,0.5625 v 2.15625 c -0.28125,-0.359375 -0.71875,-0.625 -1.25,-0.625 -1.171875,0 -2.21875,0.984375 -2.21875,2.265625 0,1.265625 0.96875,2.25 2.109375,2.25 0.640625,0 1.078125,-0.34375 1.328125,-0.65625 z m 0,-2.671875 v 2.046875 c 0,0.171875 0,0.1875 -0.109375,0.359375 C 3.375,-0.328125 2.9375,-0.109375 2.5,-0.109375 2.046875,-0.109375 1.6875,-0.375 1.453125,-0.75 1.203125,-1.15625 1.171875,-1.71875 1.171875,-2.140625 1.171875,-2.5 1.1875,-3.09375 1.46875,-3.546875 1.6875,-3.859375 2.0625,-4.1875 2.609375,-4.1875 c 0.34375,0 0.765625,0.15625 1.0625,0.59375 0.109375,0.171875 0.109375,0.1875 0.109375,0.375 z m 0,0"
           id="id-3d0a552b-c853-47db-a416-4960a5783c30"
           style="fill:#e5a50a;stroke-width:0" />
      </g>
      <g
         id="id-67e2bd20-48dd-4afe-917a-107e722f551f"
         style="fill:#e5a50a;stroke-width:0">
        <path
           d="m 2.21875,-1.71875 c -0.875,0 -0.875,-1 -0.875,-1.21875 0,-0.265625 0.015625,-0.59375 0.15625,-0.84375 0.078125,-0.109375 0.3125,-0.390625 0.71875,-0.390625 0.859375,0 0.859375,0.984375 0.859375,1.21875 0,0.265625 0,0.59375 -0.15625,0.84375 C 2.84375,-2 2.609375,-1.71875 2.21875,-1.71875 Z M 1.0625,-1.328125 c 0,-0.03125 0,-0.265625 0.15625,-0.46875 0.390625,0.28125 0.8125,0.3125 1,0.3125 0.921875,0 1.609375,-0.6875 1.609375,-1.453125 0,-0.375 -0.15625,-0.734375 -0.40625,-0.96875 C 3.78125,-4.25 4.140625,-4.296875 4.3125,-4.296875 c 0.03125,0 0.078125,0 0.109375,0.015625 C 4.3125,-4.25 4.25,-4.140625 4.25,-4.015625 c 0,0.171875 0.140625,0.28125 0.296875,0.28125 0.09375,0 0.28125,-0.0625 0.28125,-0.296875 0,-0.171875 -0.109375,-0.484375 -0.5,-0.484375 -0.203125,0 -0.640625,0.0625 -1.0625,0.46875 C 2.84375,-4.375 2.4375,-4.40625 2.21875,-4.40625 c -0.9375,0 -1.625,0.6875 -1.625,1.453125 0,0.4375 0.21875,0.8125 0.46875,1.03125 -0.125,0.140625 -0.3125,0.46875 -0.3125,0.828125 0,0.3125 0.140625,0.6875 0.453125,0.890625 -0.609375,0.15625 -0.921875,0.59375 -0.921875,0.984375 0,0.71875 0.984375,1.265625 2.203125,1.265625 1.171875,0 2.203125,-0.5 2.203125,-1.28125 0,-0.34375 -0.125,-0.859375 -0.640625,-1.140625 -0.53125,-0.265625 -1.109375,-0.265625 -1.71875,-0.265625 -0.25,0 -0.671875,0 -0.75,-0.015625 C 1.265625,-0.703125 1.0625,-1 1.0625,-1.328125 Z M 2.5,1.828125 c -1.015625,0 -1.703125,-0.515625 -1.703125,-1.046875 0,-0.453125 0.375,-0.828125 0.8125,-0.84375 h 0.59375 c 0.859375,0 1.96875,0 1.96875,0.84375 0,0.546875 -0.703125,1.046875 -1.671875,1.046875 z m 0,0"
           id="id-aa320cd6-c181-4d88-ad1f-b4b66b06008f"
           style="fill:#e5a50a;stroke-width:0" />
      </g>
      <g
         id="id-f07cd781-1ce8-46cb-8ed1-2a1696247fc0"
         style="fill:#e5a50a;stroke-width:0">
        <path
           d="m 1.09375,-0.75 c 0,0.4375 -0.109375,0.4375 -0.78125,0.4375 V 0 c 0.359375,-0.015625 0.859375,-0.03125 1.140625,-0.03125 0.25,0 0.765625,0.015625 1.109375,0.03125 v -0.3125 c -0.671875,0 -0.78125,0 -0.78125,-0.4375 V -2.59375 C 1.78125,-3.625 2.5,-4.1875 3.125,-4.1875 c 0.640625,0 0.75,0.53125 0.75,1.109375 V -0.75 c 0,0.4375 -0.109375,0.4375 -0.78125,0.4375 V 0 c 0.34375,-0.015625 0.859375,-0.03125 1.125,-0.03125 0.25,0 0.78125,0.015625 1.109375,0.03125 v -0.3125 c -0.515625,0 -0.765625,0 -0.765625,-0.296875 v -1.90625 c 0,-0.859375 0,-1.15625 -0.3125,-1.515625 -0.140625,-0.171875 -0.46875,-0.375 -1.046875,-0.375 -0.84375,0 -1.28125,0.59375 -1.453125,0.984375 v -3.5 L 0.3125,-6.8125 V -6.5 c 0.703125,0 0.78125,0.0625 0.78125,0.5625 z m 0,0"
           id="id-3a057bf9-8bd0-452f-a200-c100e21d4ba5"
           style="fill:#e5a50a;stroke-width:0" />
      </g>
      <g
         id="id-399aa05b-c5a1-46fe-bd4f-938715d920eb"
         style="fill:#e5a50a;stroke-width:0">
        <path
           d="m 2.09375,-4.40625 -1.515625,0.109375 v 0.3125 c 0.765625,0 0.859375,0.0625 0.859375,0.5625 v 3.9375 c 0,0.453125 -0.09375,1.3125 -0.734375,1.3125 -0.046875,0 -0.28125,0 -0.53125,-0.140625 C 0.3125,1.65625 0.515625,1.515625 0.515625,1.25 0.515625,0.984375 0.34375,0.78125 0.0625,0.78125 c -0.28125,0 -0.46875,0.203125 -0.46875,0.46875 0,0.515625 0.5625,0.796875 1.140625,0.796875 C 1.46875,2.046875 2.09375,1.40625 2.09375,0.5 Z m 0,-1.734375 c 0,-0.296875 -0.234375,-0.53125 -0.53125,-0.53125 -0.28125,0 -0.53125,0.234375 -0.53125,0.53125 0,0.28125 0.25,0.53125 0.53125,0.53125 0.296875,0 0.53125,-0.25 0.53125,-0.53125 z m 0,0"
           id="id-d7d15274-2fea-4108-a533-8f28c76b516a"
           style="fill:#e5a50a;stroke-width:0" />
      </g>
    </g>
  </defs>
  <g
     inkscape:label="Layer 1"
     inkscape:groupmode="layer"
     id="layer1"
     transform="translate(-21.0767, -78.567)">
    <path
       style="display:inline;opacity:0.510552;fill:#f6d32d;fill-opacity:0.67142;stroke:#1a5fb4;stroke-width:1;stroke-linejoin:round;stroke-dasharray:3, 1;stroke-dashoffset:0"
       d="m 57.22211,170.808 20.88086,-6.22064"
       id="path14775"
       sodipodi:nodetypes="cc" />
    <path
       style="display:inline;opacity:0.510552;fill:#f6d32d;fill-opacity:0.67142;stroke:#1a5fb4;stroke-width:1;stroke-linejoin:round;stroke-dasharray:3, 1;stroke-dashoffset:0"
       d="m 142.46509,141.30748 16.96062,-5.69908"
       id="path14777"
       sodipodi:nodetypes="cc" />
    <path
       style="display:inline;opacity:0.510552;fill:#f6d32d;fill-opacity:0.67142;stroke:#1a5fb4;stroke-width:1;stroke-linejoin:round;stroke-dasharray:3, 1;stroke-dashoffset:0"
       d="m 78.10297,164.58736 15.34099,12.44128"
       id="path14779"
       sodipodi:nodetypes="cc" />
    <path
       style="display:inline;opacity:0.510552;fill:#f6d32d;fill-opacity:0.67142;stroke:#1a5fb4;stroke-width:1;stroke-linejoin:round;stroke-dasharray:3, 1;stroke-dashoffset:0"
       d="M 40.47348,133.63473 25.975,122.03303"
       id="path14781"
       sodipodi:nodetypes="cc" />
    <path
       style="display:inline;opacity:0.510552;fill:#f6d32d;fill-opacity:0.67142;stroke:#1a5fb4;stroke-width:1;stroke-linejoin:round;stroke-dasharray:3, 1;stroke-dashoffset:0"
       d="m 96.9403,119.70902 -13.6316,-7.1155"
       id="path14783" />
    <path
       style="display:inline;opacity:0.510552;fill:#f6d32d;fill-opacity:0.67142;stroke:#1a5fb4;stroke-width:1;stroke-linejoin:round;stroke-dasharray:3, 1;stroke-dashoffset:0"
       d="m 40.47348,133.63473 -19.39679,3.94734"
       id="path14785"
       sodipodi:nodetypes="cc" />
    <path
       style="display:inline;opacity:0.510552;fill:#f6d32d;fill-opacity:0.67142;stroke:#1a5fb4;stroke-width:1;stroke-linejoin:round;stroke-dasharray:3, 1;stroke-dashoffset:0"
       d="m 96.9403,119.70902 14.43807,-3.55775"
       id="path14787" />
    <path
       style="display:inline;fill:#f6d32d;fill-opacity:0.283539;stroke:#000000;stroke-width:1;stroke-linejoin:round;stroke-dasharray:none;stroke-dashoffset:0"
       d="m 89.31641,139.19356 21.79905,13.27152 31.34963,-11.1576 -23.72604,-11.25641 z"
       id="path14546"
       sodipodi:nodetypes="ccccc" />
    <path
       style="display:inline;opacity:0.510552;fill:#f6d32d;fill-opacity:0.67142;stroke:#1a5fb4;stroke-width:1;stroke-linejoin:round;stroke-dasharray:3, 1;stroke-dashoffset:0"
       d="m 142.46509,141.30748 24.48509,11.6576"
       id="path14789" />
    <path
       style="display:inline;fill:#f6d32d;fill-opacity:1;stroke:#5e5c64;stroke-width:1;stroke-linejoin:round;stroke-dasharray:none;stroke-dashoffset:0"
       d="m 89.31641,139.19356 49.84493,60.68967"
       id="path14719" />
    <path
       style="display:inline;fill:#f6d32d;fill-opacity:0.283539;stroke:#5e5c64;stroke-width:1;stroke-linejoin:round;stroke-dasharray:none;stroke-dashoffset:0"
       d="M 173.81588,95.188643 139.16134,199.88323"
       id="path14550" />
    <path
       style="display:inline;fill:#f6d32d;fill-opacity:1;stroke:#5e5c64;stroke-width:1;stroke-linejoin:round;stroke-dasharray:none;stroke-dashoffset:0"
       d="m 48.94091,89.829273 40.3755,49.364287"
       id="path14717" />
    <path
       style="display:inline;fill:#1f77b4;fill-opacity:0.668293;stroke:#1f77b4;stroke-width:1.5;stroke-linejoin:round;stroke-dasharray:none;stroke-dashoffset:0"
       d="m 40.47348,133.63473 56.46682,-13.92571 45.52479,21.59846 -64.36212,23.27988 z"
       id="path14556" />
    <path
       style="display:inline;fill:#cccccc;fill-opacity:0.67142;stroke:#cccccc;stroke-width:1.5;stroke-linejoin:round;stroke-dasharray:none;stroke-dashoffset:0"
       d="m 120.7573,158.33515 36.74379,-13.24349 -33.31366,-16.67407 -34.87102,10.77597 z"
       id="path14490" />
    <path
       style="display:inline;fill:#2ca02c;fill-opacity:0.493639;stroke:#2ca02c;stroke-width:2.2;stroke-linejoin:round;stroke-dasharray:none;stroke-dashoffset:0"
       d="m 89.31642,139.19356 21.79904,13.27152 31.34964,-11.1576 -23.72604,-11.25641 z"
       id="path17231" />
    <circle
       style="display:inline;fill:#cc0000;fill-opacity:1;stroke:none;stroke-width:0.583018;stroke-linejoin:round;stroke-dasharray:none;stroke-dashoffset:0"
       id="path14661"
       cx="138.68668"
       cy="199.28699"
       r="2.7684538" />
    <path
       style="display:inline;fill:#ffcc00;fill-opacity:0.66785097;stroke:#ffcc00;stroke-width:1.7;stroke-linejoin:round;stroke-dasharray:none;stroke-dashoffset:0"
       d="M 48.94091,89.829273 100.0137,112.79852 173.81588,95.188643 113.7624,79.417043 Z"
       id="path14558" />
    <text
       xml:space="preserve"
       style="font-style:normal;font-variant:normal;font-weight:normal;font-stretch:normal;font-size:4.5861px;line-height:1.25;font-family:'Noto Naskh Arabic UI';-inkscape-font-specification:'Noto Naskh Arabic UI, Normal';font-variant-ligatures:normal;font-variant-caps:normal;font-variant-numeric:normal;font-variant-east-asian:normal;text-align:start;letter-spacing:0px;word-spacing:0px;text-anchor:start;white-space:pre;inline-size:14.9564;display:inline;fill:#ff9900;stroke-width:0.264583"
       x="149.93338"
       y="118.41715"
       id="text33849"
       transform="translate(6.1651977,-33.211501)"><tspan
         x="149.93338"
         y="118.41715"
         id="tspan1787">light</tspan></text>
    <text
       xml:space="preserve"
       style="font-style:normal;font-variant:normal;font-weight:normal;font-stretch:normal;font-size:4.5861px;line-height:1.25;font-family:'Noto Naskh Arabic UI';-inkscape-font-specification:'Noto Naskh Arabic UI, Normal';font-variant-ligatures:normal;font-variant-caps:normal;font-variant-numeric:normal;font-variant-east-asian:normal;text-align:end;letter-spacing:0px;word-spacing:0px;text-anchor:end;white-space:pre;inline-size:14.9564;display:inline;fill:#1f77b4;stroke-width:0.264583"
       x="162.05444"
       y="118.41715"
       id="text33903"
       transform="translate(-115.03115,28.073299)"><tspan
         x="162.05444"
         y="118.41715"
         id="tspan1789">portal</tspan></text>
    <text
       xml:space="preserve"
       style="font-style:normal;font-variant:normal;font-weight:normal;font-stretch:normal;font-size:4.5861px;line-height:1.25;font-family:'Noto Naskh Arabic UI';-inkscape-font-specification:'Noto Naskh Arabic UI, Normal';font-variant-ligatures:normal;font-variant-caps:normal;font-variant-numeric:normal;font-variant-east-asian:normal;letter-spacing:0px;word-spacing:0px;white-space:pre;inline-size:32.1679;display:inline;stroke-width:0.264583;fill:#cc0000"
       x="149.93338"
       y="118.41715"
       id="text33907"
       transform="translate(-6.6103717,82.062221)"><tspan
         x="149.93338"
         y="118.41715"
         id="tspan1791">shading point</tspan></text>
    <text
       xml:space="preserve"
       style="font-weight:bold;font-size:4.5861px;line-height:1.25;font-family:'Noto Naskh Arabic UI';-inkscape-font-specification:'Noto Naskh Arabic UI, Bold';text-align:center;letter-spacing:0px;word-spacing:0px;white-space:pre;shape-inside:url(#rect19881);display:inline;stroke-width:0.264583"
       x="245.55981"
       y="96.666573"
       id="text34882"
       transform="translate(2.238863,1.8059131)" />
    <circle
       style="fill:#ff9900;stroke:none;stroke-width:1;stroke-linecap:round;stroke-linejoin:round"
       id="path1039"
       cx="48.553879"
       cy="89.512718"
       r="2.2378771" />
    <circle
       style="fill:#ff9900;stroke:none;stroke-width:1;stroke-linecap:round;stroke-linejoin:round"
       id="circle1145"
       cx="173.44632"
       cy="95.031525"
       r="2.2378771" />
    <circle
       style="fill:#666666;stroke:none;stroke-width:1;stroke-linecap:round;stroke-linejoin:round"
       id="circle1147"
       cx="156.48862"
       cy="145.29807"
       r="2.2378771" />
    <circle
       style="fill:#666666;stroke:none;stroke-width:1;stroke-linecap:round;stroke-linejoin:round"
       id="circle1149"
       cx="89.703438"
       cy="139.51012"
       r="2.2378771" />
    <circle
       style="fill:#1f77b4;stroke:none;stroke-width:1;stroke-linecap:round;stroke-linejoin:round"
       id="circle1151"
       cx="40.785877"
       cy="133.14478"
       r="2.2378771" />
    <circle
       style="fill:#1f77b4;stroke:none;stroke-width:1;stroke-linecap:round;stroke-linejoin:round"
       id="circle1153"
       cx="141.89973"
       cy="140.85603"
       r="2.2378771" />
    <text
       xml:space="preserve"
       style="font-weight:bold;font-size:4.5861px;line-height:1.25;font-family:'Noto Naskh Arabic UI';-inkscape-font-specification:'Noto Naskh Arabic UI, Bold';letter-spacing:0px;word-spacing:0px;fill:#ff9900;stroke-width:0.264583"
       x="31.344589"
       y="88.788116"
       id="text1209"><tspan
         sodipodi:role="line"
         id="tspan1207"
         style="font-weight:normal;fill:#ff9900;stroke-width:0.264583"
         x="31.344589"
         y="88.788116">$l_{lo}$</tspan></text>
    <text
       xml:space="preserve"
       style="font-weight:bold;font-size:4.5861px;line-height:1.25;font-family:'Noto Naskh Arabic UI';-inkscape-font-specification:'Noto Naskh Arabic UI, Bold';text-align:end;letter-spacing:0px;word-spacing:0px;text-anchor:end;fill:#ff9900;stroke-width:0.264583"
       x="190.70895"
       y="94.174065"
       id="text1213"><tspan
         sodipodi:role="line"
         id="tspan1211"
         style="font-weight:normal;text-align:end;text-anchor:end;fill:#ff9900;stroke-width:0.264583"
         x="190.70895"
         y="94.174065">$l_{lo}$</tspan></text>
    <text
       xml:space="preserve"
       style="font-weight:bold;font-size:4.5861px;line-height:1.25;font-family:'Noto Naskh Arabic UI';-inkscape-font-specification:'Noto Naskh Arabic UI, Bold';letter-spacing:0px;word-spacing:0px;stroke-width:0.264583;fill:#1f77b4"
       x="18.894827"
       y="132.78651"
       id="text1267"><tspan
         sodipodi:role="line"
         id="tspan1265"
         style="font-weight:normal;stroke-width:0.264583;fill:#1f77b4"
         x="18.894827"
         y="132.78651">$p_{lo}$</tspan></text>
    <text
       xml:space="preserve"
       style="font-weight:bold;font-size:4.5861px;line-height:1.25;font-family:'Noto Naskh Arabic UI';-inkscape-font-specification:'Noto Naskh Arabic UI, Bold';letter-spacing:0px;word-spacing:0px;fill:#1f77b4;stroke-width:0.264583"
       x="144.10567"
       y="135.13445"
       id="text1271"><tspan
         sodipodi:role="line"
         id="tspan1269"
         style="font-weight:normal;fill:#1f77b4;stroke-width:0.264583"
         x="144.10567"
         y="135.13445">$p_{hi}$</tspan></text>
  </g>
</svg>
